<svg width="77" height="30" viewBox="0 0 77 30" fill="none" xmlns="http://www.w3.org/2000/svg">
<path d="M0.4 15C0.4 12.2533 1.01333 9.8 2.24 7.64C3.49333 5.45333 5.18667 3.76 7.32 2.56C9.48 1.33333 11.8933 0.719999 14.56 0.719999C17.68 0.719999 20.4133 1.52 22.76 3.12C25.1067 4.72 26.7467 6.93333 27.68 9.76H21.24C20.6 8.42667 19.6933 7.42667 18.52 6.76C17.3733 6.09333 16.04 5.76 14.52 5.76C12.8933 5.76 11.44 6.14667 10.16 6.92C8.90667 7.66666 7.92 8.73333 7.2 10.12C6.50667 11.5067 6.16 13.1333 6.16 15C6.16 16.84 6.50667 18.4667 7.2 19.88C7.92 21.2667 8.90667 22.3467 10.16 23.12C11.44 23.8667 12.8933 24.24 14.52 24.24C16.04 24.24 17.3733 23.9067 18.52 23.24C19.6933 22.5467 20.6 21.5333 21.24 20.2H27.68C26.7467 23.0533 25.1067 25.28 22.76 26.88C20.44 28.4533 17.7067 29.24 14.56 29.24C11.8933 29.24 9.48 28.64 7.32 27.44C5.18667 26.2133 3.49333 24.52 2.24 22.36C1.01333 20.2 0.4 17.7467 0.4 15ZM42.1031 29.28C40.1565 29.28 38.3965 28.9467 36.8231 28.28C35.2765 27.6133 34.0498 26.6533 33.1431 25.4C32.2365 24.1467 31.7698 22.6667 31.7431 20.96H37.7431C37.8231 22.1067 38.2231 23.0133 38.9431 23.68C39.6898 24.3467 40.7031 24.68 41.9831 24.68C43.2898 24.68 44.3165 24.3733 45.0631 23.76C45.8098 23.12 46.1831 22.2933 46.1831 21.28C46.1831 20.4533 45.9298 19.7733 45.4231 19.24C44.9165 18.7067 44.2765 18.2933 43.5031 18C42.7565 17.68 41.7165 17.3333 40.3831 16.96C38.5698 16.4267 37.0898 15.9067 35.9431 15.4C34.8231 14.8667 33.8498 14.08 33.0231 13.04C32.2231 11.9733 31.8231 10.56 31.8231 8.8C31.8231 7.14667 32.2365 5.70667 33.0631 4.48C33.8898 3.25333 35.0498 2.32 36.5431 1.68C38.0365 1.01333 39.7431 0.68 41.6631 0.68C44.5431 0.68 46.8765 1.38667 48.6631 2.8C50.4765 4.18667 51.4765 6.13333 51.6631 8.64H45.5031C45.4498 7.68 45.0365 6.89333 44.2631 6.28C43.5165 5.64 42.5165 5.32 41.2631 5.32C40.1698 5.32 39.2898 5.6 38.6231 6.16C37.9831 6.72 37.6631 7.53333 37.6631 8.6C37.6631 9.34667 37.9031 9.97333 38.3831 10.48C38.8898 10.96 39.5031 11.36 40.2231 11.68C40.9698 11.9733 42.0098 12.32 43.3431 12.72C45.1565 13.2533 46.6365 13.7867 47.7831 14.32C48.9298 14.8533 49.9165 15.6533 50.7431 16.72C51.5698 17.7867 51.9831 19.1867 51.9831 20.92C51.9831 22.4133 51.5965 23.8 50.8231 25.08C50.0498 26.36 48.9165 27.3867 47.4231 28.16C45.9298 28.9067 44.1565 29.28 42.1031 29.28ZM66.4781 29.28C64.5315 29.28 62.7715 28.9467 61.1981 28.28C59.6515 27.6133 58.4248 26.6533 57.5181 25.4C56.6115 24.1467 56.1448 22.6667 56.1181 20.96H62.1181C62.1981 22.1067 62.5981 23.0133 63.3181 23.68C64.0648 24.3467 65.0781 24.68 66.3581 24.68C67.6648 24.68 68.6915 24.3733 69.4381 23.76C70.1848 23.12 70.5581 22.2933 70.5581 21.28C70.5581 20.4533 70.3048 19.7733 69.7981 19.24C69.2915 18.7067 68.6515 18.2933 67.8781 18C67.1315 17.68 66.0915 17.3333 64.7581 16.96C62.9448 16.4267 61.4648 15.9067 60.3181 15.4C59.1981 14.8667 58.2248 14.08 57.3981 13.04C56.5981 11.9733 56.1981 10.56 56.1981 8.8C56.1981 7.14667 56.6115 5.70667 57.4381 4.48C58.2648 3.25333 59.4248 2.32 60.9181 1.68C62.4115 1.01333 64.1181 0.68 66.0381 0.68C68.9181 0.68 71.2515 1.38667 73.0381 2.8C74.8515 4.18667 75.8515 6.13333 76.0381 8.64H69.8781C69.8248 7.68 69.4115 6.89333 68.6381 6.28C67.8915 5.64 66.8915 5.32 65.6381 5.32C64.5448 5.32 63.6648 5.6 62.9981 6.16C62.3581 6.72 62.0381 7.53333 62.0381 8.6C62.0381 9.34667 62.2781 9.97333 62.7581 10.48C63.2648 10.96 63.8781 11.36 64.5981 11.68C65.3448 11.9733 66.3848 12.32 67.7181 12.72C69.5315 13.2533 71.0115 13.7867 72.1581 14.32C73.3048 14.8533 74.2915 15.6533 75.1181 16.72C75.9448 17.7867 76.3581 19.1867 76.3581 20.92C76.3581 22.4133 75.9715 23.8 75.1981 25.08C74.4248 26.36 73.2915 27.3867 71.7981 28.16C70.3048 28.9067 68.5315 29.28 66.4781 29.28Z" fill="white" fill-opacity="0.4"/>
</svg>
