<svg width="215" height="43" viewBox="0 0 215 43" fill="none" xmlns="http://www.w3.org/2000/svg">
<path d="M18.04 4.08V23.68C18.04 26.4 17.2533 28.52 15.68 30.04C14.1067 31.5333 12 32.28 9.36 32.28C6.69333 32.28 4.53333 31.5067 2.88 29.96C1.25333 28.4133 0.44 26.2533 0.44 23.48H6.04C6.06667 24.68 6.34667 25.6133 6.88 26.28C7.44 26.9467 8.24 27.28 9.28 27.28C10.2933 27.28 11.0667 26.96 11.6 26.32C12.1333 25.68 12.4 24.8 12.4 23.68V4.08H18.04ZM23.1325 20.84C23.1325 18.6 23.5725 16.6133 24.4525 14.88C25.3592 13.1467 26.5725 11.8133 28.0925 10.88C29.6392 9.94667 31.3592 9.48 33.2525 9.48C34.9058 9.48 36.3458 9.81333 37.5725 10.48C38.8258 11.1467 39.8258 11.9867 40.5725 13V9.84H46.2125V32H40.5725V28.76C39.8525 29.8 38.8525 30.6667 37.5725 31.36C36.3192 32.0267 34.8658 32.36 33.2125 32.36C31.3458 32.36 29.6392 31.88 28.0925 30.92C26.5725 29.96 25.3592 28.6133 24.4525 26.88C23.5725 25.12 23.1325 23.1067 23.1325 20.84ZM40.5725 20.92C40.5725 19.56 40.3058 18.4 39.7725 17.44C39.2392 16.4533 38.5192 15.7067 37.6125 15.2C36.7058 14.6667 35.7325 14.4 34.6925 14.4C33.6525 14.4 32.6925 14.6533 31.8125 15.16C30.9325 15.6667 30.2125 16.4133 29.6525 17.4C29.1192 18.36 28.8525 19.5067 28.8525 20.84C28.8525 22.1733 29.1192 23.3467 29.6525 24.36C30.2125 25.3467 30.9325 26.1067 31.8125 26.64C32.7192 27.1733 33.6792 27.44 34.6925 27.44C35.7325 27.44 36.7058 27.1867 37.6125 26.68C38.5192 26.1467 39.2392 25.4 39.7725 24.44C40.3058 23.4533 40.5725 22.28 40.5725 20.92ZM60.9219 26.84L66.5219 9.84H72.4819L64.2819 32H57.4819L49.3219 9.84H55.3219L60.9219 26.84ZM74.1872 20.84C74.1872 18.6 74.6272 16.6133 75.5072 14.88C76.4139 13.1467 77.6272 11.8133 79.1472 10.88C80.6939 9.94667 82.4139 9.48 84.3072 9.48C85.9605 9.48 87.4005 9.81333 88.6272 10.48C89.8805 11.1467 90.8805 11.9867 91.6272 13V9.84H97.2672V32H91.6272V28.76C90.9072 29.8 89.9072 30.6667 88.6272 31.36C87.3739 32.0267 85.9205 32.36 84.2672 32.36C82.4005 32.36 80.6939 31.88 79.1472 30.92C77.6272 29.96 76.4139 28.6133 75.5072 26.88C74.6272 25.12 74.1872 23.1067 74.1872 20.84ZM91.6272 20.92C91.6272 19.56 91.3605 18.4 90.8272 17.44C90.2939 16.4533 89.5739 15.7067 88.6672 15.2C87.7605 14.6667 86.7872 14.4 85.7472 14.4C84.7072 14.4 83.7472 14.6533 82.8672 15.16C81.9872 15.6667 81.2672 16.4133 80.7072 17.4C80.1739 18.36 79.9072 19.5067 79.9072 20.84C79.9072 22.1733 80.1739 23.3467 80.7072 24.36C81.2672 25.3467 81.9872 26.1067 82.8672 26.64C83.7739 27.1733 84.7339 27.44 85.7472 27.44C86.7872 27.44 87.7605 27.1867 88.6672 26.68C89.5739 26.1467 90.2939 25.4 90.8272 24.44C91.3605 23.4533 91.6272 22.28 91.6272 20.92ZM111.217 32.36C109.403 32.36 107.777 32.04 106.337 31.4C104.897 30.7333 103.75 29.84 102.897 28.72C102.07 27.6 101.617 26.36 101.537 25H107.177C107.283 25.8533 107.697 26.56 108.417 27.12C109.163 27.68 110.083 27.96 111.177 27.96C112.243 27.96 113.07 27.7467 113.657 27.32C114.27 26.8933 114.577 26.3467 114.577 25.68C114.577 24.96 114.203 24.4267 113.457 24.08C112.737 23.7067 111.577 23.3067 109.977 22.88C108.323 22.48 106.963 22.0667 105.897 21.64C104.857 21.2133 103.95 20.56 103.177 19.68C102.43 18.8 102.057 17.6133 102.057 16.12C102.057 14.8933 102.403 13.7733 103.097 12.76C103.817 11.7467 104.83 10.9467 106.137 10.36C107.47 9.77333 109.03 9.48 110.817 9.48C113.457 9.48 115.563 10.1467 117.137 11.48C118.71 12.7867 119.577 14.56 119.737 16.8H114.377C114.297 15.92 113.923 15.2267 113.257 14.72C112.617 14.1867 111.75 13.92 110.657 13.92C109.643 13.92 108.857 14.1067 108.297 14.48C107.763 14.8533 107.497 15.3733 107.497 16.04C107.497 16.7867 107.87 17.36 108.617 17.76C109.363 18.1333 110.523 18.52 112.097 18.92C113.697 19.32 115.017 19.7333 116.057 20.16C117.097 20.5867 117.99 21.2533 118.737 22.16C119.51 23.04 119.91 24.2133 119.937 25.68C119.937 26.96 119.577 28.1067 118.857 29.12C118.163 30.1333 117.15 30.9333 115.817 31.52C114.51 32.08 112.977 32.36 111.217 32.36ZM123.093 20.92C123.093 18.6267 123.56 16.6267 124.493 14.92C125.427 13.1867 126.72 11.8533 128.373 10.92C130.027 9.96 131.92 9.48 134.053 9.48C136.8 9.48 139.067 10.1733 140.853 11.56C142.667 12.92 143.88 14.84 144.493 17.32H138.453C138.133 16.36 137.587 15.6133 136.813 15.08C136.067 14.52 135.133 14.24 134.013 14.24C132.413 14.24 131.147 14.8267 130.213 16C129.28 17.1467 128.813 18.7867 128.813 20.92C128.813 23.0267 129.28 24.6667 130.213 25.84C131.147 26.9867 132.413 27.56 134.013 27.56C136.28 27.56 137.76 26.5467 138.453 24.52H144.493C143.88 26.92 142.667 28.8267 140.853 30.24C139.04 31.6533 136.773 32.36 134.053 32.36C131.92 32.36 130.027 31.8933 128.373 30.96C126.72 30 125.427 28.6667 124.493 26.96C123.56 25.2267 123.093 23.2133 123.093 20.92ZM154.196 13.28C154.916 12.1067 155.849 11.1867 156.996 10.52C158.169 9.85333 159.503 9.52 160.996 9.52V15.4H159.516C157.756 15.4 156.423 15.8133 155.516 16.64C154.636 17.4667 154.196 18.9067 154.196 20.96V32H148.596V9.84H154.196V13.28ZM167.608 7.2C166.621 7.2 165.794 6.89333 165.128 6.28C164.488 5.64 164.168 4.85333 164.168 3.92C164.168 2.98667 164.488 2.21333 165.128 1.6C165.794 0.959998 166.621 0.639998 167.608 0.639998C168.594 0.639998 169.408 0.959998 170.048 1.6C170.714 2.21333 171.048 2.98667 171.048 3.92C171.048 4.85333 170.714 5.64 170.048 6.28C169.408 6.89333 168.594 7.2 167.608 7.2ZM170.368 9.84V32H164.768V9.84H170.368ZM181.501 13.04C182.221 12.0267 183.207 11.1867 184.461 10.52C185.741 9.82667 187.194 9.48 188.821 9.48C190.714 9.48 192.421 9.94667 193.941 10.88C195.487 11.8133 196.701 13.1467 197.581 14.88C198.487 16.5867 198.941 18.5733 198.941 20.84C198.941 23.1067 198.487 25.12 197.581 26.88C196.701 28.6133 195.487 29.96 193.941 30.92C192.421 31.88 190.714 32.36 188.821 32.36C187.194 32.36 185.754 32.0267 184.501 31.36C183.274 30.6933 182.274 29.8533 181.501 28.84V42.56H175.901V9.84H181.501V13.04ZM193.221 20.84C193.221 19.5067 192.941 18.36 192.381 17.4C191.847 16.4133 191.127 15.6667 190.221 15.16C189.341 14.6533 188.381 14.4 187.341 14.4C186.327 14.4 185.367 14.6667 184.461 15.2C183.581 15.7067 182.861 16.4533 182.301 17.44C181.767 18.4267 181.501 19.5867 181.501 20.92C181.501 22.2533 181.767 23.4133 182.301 24.4C182.861 25.3867 183.581 26.1467 184.461 26.68C185.367 27.1867 186.327 27.44 187.341 27.44C188.381 27.44 189.341 27.1733 190.221 26.64C191.127 26.1067 191.847 25.3467 192.381 24.36C192.941 23.3733 193.221 22.2 193.221 20.84ZM209.53 14.44V25.16C209.53 25.9067 209.703 26.4533 210.05 26.8C210.423 27.12 211.037 27.28 211.89 27.28H214.49V32H210.97C206.25 32 203.89 29.7067 203.89 25.12V14.44H201.25V9.84H203.89V4.36H209.53V9.84H214.49V14.44H209.53Z" fill="white" fill-opacity="0.4"/>
</svg>
