<svg width="97" height="48" viewBox="0 0 97 48" fill="none" xmlns="http://www.w3.org/2000/svg">
<path d="M10.4 12.536C12.768 12.536 14.8373 13.0053 16.608 13.944C18.3787 14.8827 19.744 16.2053 20.704 17.912C21.6853 19.5973 22.176 21.5493 22.176 23.768C22.176 25.9653 21.6853 27.9173 20.704 29.624C19.744 31.3307 18.368 32.6533 16.576 33.592C14.8053 34.5307 12.7467 35 10.4 35H1.984V12.536H10.4ZM10.048 30.264C12.1173 30.264 13.728 29.6987 14.88 28.568C16.032 27.4373 16.608 25.8373 16.608 23.768C16.608 21.6987 16.032 20.088 14.88 18.936C13.728 17.784 12.1173 17.208 10.048 17.208H7.456V30.264H10.048ZM50.674 12.536V35H45.202V21.528L40.178 35H35.762L30.706 21.496V35H25.234V12.536H31.698L38.002 28.088L44.242 12.536H50.674ZM68.593 31.032H60.209L58.865 35H53.137L61.265 12.536H67.601L75.729 35H69.937L68.593 31.032ZM67.185 26.808L64.401 18.584L61.649 26.808H67.185ZM86.3308 35.224C84.6881 35.224 83.2161 34.9573 81.9148 34.424C80.6134 33.8907 79.5681 33.1013 78.7788 32.056C78.0108 31.0107 77.6054 29.752 77.5628 28.28H83.3868C83.4721 29.112 83.7601 29.752 84.2508 30.2C84.7414 30.6267 85.3814 30.84 86.1708 30.84C86.9814 30.84 87.6214 30.6587 88.0908 30.296C88.5601 29.912 88.7948 29.3893 88.7948 28.728C88.7948 28.1733 88.6028 27.7147 88.2188 27.352C87.8561 26.9893 87.3974 26.6907 86.8428 26.456C86.3094 26.2213 85.5414 25.9547 84.5388 25.656C83.0881 25.208 81.9041 24.76 80.9868 24.312C80.0694 23.864 79.2801 23.2027 78.6188 22.328C77.9574 21.4533 77.6268 20.312 77.6268 18.904C77.6268 16.8133 78.3841 15.1813 79.8988 14.008C81.4134 12.8133 83.3868 12.216 85.8188 12.216C88.2934 12.216 90.2881 12.8133 91.8028 14.008C93.3174 15.1813 94.1281 16.824 94.2348 18.936H88.3148C88.2721 18.2107 88.0054 17.6453 87.5148 17.24C87.0241 16.8133 86.3948 16.6 85.6267 16.6C84.9654 16.6 84.4321 16.7813 84.0268 17.144C83.6214 17.4853 83.4188 17.9867 83.4188 18.648C83.4188 19.3733 83.7601 19.9387 84.4427 20.344C85.1254 20.7493 86.1921 21.1867 87.6428 21.656C89.0934 22.1467 90.2668 22.616 91.1628 23.064C92.0801 23.512 92.8694 24.1627 93.5308 25.016C94.1921 25.8693 94.5228 26.968 94.5228 28.312C94.5228 29.592 94.1921 30.7547 93.5308 31.8C92.8908 32.8453 91.9521 33.6773 90.7148 34.296C89.4774 34.9147 88.0161 35.224 86.3308 35.224Z" fill="#E5E5E5"/>
<ellipse cx="28.2917" cy="5" rx="4.04167" ry="4" fill="#F8E7A1"/>
</svg>
